# xmcd
#
# Track frame offsets: 
#        150
#        14226
#        31840
#        49176
#        66909
#        81716
#        99274
#        113391
#        131639
#        146341
#
# Disc length: 2180 seconds
#
# Revision: 0
# Processed by: cddbd v1.5.2PL0 Copyright (c) Steve Scherf et al.
# Submitted via: ExactAudioCopy v1.3
#
DISCID=8608820a
DTITLE=Powder Blues - Thirsty Ears
DYEAR=1981
DGENRE=Jump Blues
TTITLE0=Thirsty Ears
TTITLE1=Secret Success
TTITLE2=Pink Champagne
TTITLE3=Undercover Blues
TTITLE4=Lovin' Kissin' And Huggin'
TTITLE5=Joy Ridin'
TTITLE6=She's Crazy
TTITLE7=Nothin' But A Tease
TTITLE8=She Took My Soul
TTITLE9=Will Power
EXTD=
EXTT0=
EXTT1=
EXTT2=
EXTT3=
EXTT4=
EXTT5=
EXTT6=
EXTT7=
EXTT8=
EXTT9=
PLAYORDER=
